<?xml version="1.0" standalone="no"?>
<!DOCTYPE svg PUBLIC "-//W3C//DTD SVG 20010904//EN"
 "http://www.w3.org/TR/2001/REC-SVG-20010904/DTD/svg10.dtd">
<svg version="1.0" xmlns="http://www.w3.org/2000/svg"
 width="3500.000000pt" height="1440.000000pt" viewBox="0 0 3500.000000 1440.000000"
 preserveAspectRatio="xMidYMid meet">

<g transform="translate(0.000000,1440.000000) scale(0.100000,-0.100000)"
fill="#000000" stroke="none">
<path d="M16400 10187 c-404 -233 -750 -432 -769 -443 -59 -33 -100 -75 -108
-107 -5 -18 -6 -526 -3 -1129 l5 -1096 24 -26 c36 -38 210 -141 221 -130 11
11 242 575 238 579 -2 2 -28 -11 -58 -29 -30 -17 -76 -44 -102 -59 l-48 -28 0
820 0 820 319 -182 320 -182 1 -55 1 -55 68 165 c51 122 66 168 57 176 -6 6
-150 91 -320 190 -294 170 -308 179 -287 193 12 8 247 145 523 306 l500 291
83 202 c45 111 80 202 76 202 -3 0 -337 -191 -741 -423z"/>
<path d="M13260 5000 l0 -870 89 0 90 0 3 408 3 407 29 62 c32 70 93 133 153
158 100 42 238 27 304 -32 67 -61 69 -77 69 -570 l0 -433 90 0 91 0 -3 473
c-4 534 -3 526 -84 616 -90 100 -266 135 -439 86 -78 -22 -141 -67 -183 -133
l-37 -57 0 375 0 375 -87 3 -88 3 0 -871z"/>
<path d="M17110 5000 l0 -870 90 0 90 0 0 870 0 870 -90 0 -90 0 0 -870z"/>
<path d="M5980 5650 l0 -100 95 0 95 0 0 100 0 100 -95 0 -95 0 0 -100z"/>
<path d="M26490 5650 l0 -100 100 0 100 0 0 100 0 100 -100 0 -100 0 0 -100z"/>
<path d="M22230 5664 c-242 -52 -377 -231 -341 -453 32 -196 145 -280 491
-365 252 -62 324 -89 376 -141 96 -97 79 -287 -34 -372 -60 -46 -129 -64 -262
-70 -137 -6 -212 6 -298 48 -72 35 -122 93 -147 170 -9 27 -22 49 -28 49 -18
0 -170 -30 -174 -34 -2 -2 5 -27 16 -55 61 -162 173 -257 361 -308 92 -25 367
-25 460 0 205 55 324 176 350 354 18 133 -17 257 -96 336 -79 78 -150 107
-455 187 -219 57 -297 93 -338 154 -23 35 -26 49 -26 127 0 81 2 90 30 131 62
87 214 131 380 110 152 -20 219 -64 265 -176 17 -40 28 -55 39 -52 9 3 51 10
94 17 89 14 87 8 36 116 -57 118 -164 196 -315 228 -87 18 -296 18 -384 -1z"/>
<path d="M33884 5666 c-217 -50 -370 -166 -461 -353 -67 -138 -86 -246 -80
-448 4 -135 9 -174 31 -250 60 -200 175 -345 336 -423 115 -56 183 -73 326
-79 239 -11 423 55 566 204 47 49 128 167 128 187 0 7 -33 28 -74 48 l-74 37
-38 -61 c-77 -126 -199 -218 -324 -247 -67 -16 -218 -13 -285 4 -266 70 -424
335 -402 674 13 195 61 317 166 422 78 78 151 115 265 136 236 42 446 -42 551
-221 15 -25 28 -46 29 -46 3 0 141 46 164 55 23 8 -47 124 -119 196 -71 72
-167 126 -274 155 -83 23 -348 29 -431 10z"/>
<path d="M260 4895 l0 -766 98 3 97 3 3 763 2 762 -100 0 -100 0 0 -765z"/>
<path d="M2130 4895 l0 -765 80 0 80 0 2 658 3 657 33 -90 c17 -49 133 -344
255 -655 l223 -565 80 -3 79 -2 114 327 c91 262 324 944 342 1001 2 6 3 -289
1 -658 l-3 -670 85 0 86 0 0 765 0 766 -127 -3 -128 -3 -122 -345 c-68 -190
-170 -484 -228 -654 -86 -253 -106 -304 -113 -285 -5 13 -19 51 -31 84 -12 33
-124 318 -249 632 l-227 573 -117 0 -118 0 0 -765z"/>
<path d="M9510 5580 l0 -80 250 0 250 0 0 -685 0 -685 95 0 95 0 0 685 0 685
248 2 247 3 3 78 3 77 -596 0 -595 0 0 -80z"/>
<path d="M31120 4895 l0 -765 465 0 465 0 0 80 0 80 -370 0 -370 0 0 685 0
685 -95 0 -95 0 0 -765z"/>
<path d="M32300 4895 l0 -765 470 0 471 0 -3 78 -3 77 -372 3 -373 2 0 685 0
685 -95 0 -95 0 0 -765z"/>
<path d="M5258 5478 l-3 -173 -67 -3 -68 -3 0 -64 0 -65 70 0 70 0 0 -442 c0
-274 4 -457 10 -480 14 -50 55 -97 105 -119 32 -15 66 -19 173 -19 l132 0 0
74 0 74 -96 4 c-91 4 -98 6 -120 32 l-24 27 0 425 0 424 110 0 110 0 0 65 0
65 -110 0 -110 0 -2 173 -3 172 -87 3 -88 3 -2 -173z"/>
<path d="M1288 5319 c-70 -10 -156 -51 -197 -93 -16 -17 -44 -56 -60 -86 l-31
-55 0 108 0 107 -85 0 -85 0 2 -582 3 -583 92 -3 92 -3 3 408 3 408 29 63 c68
148 221 215 382 167 56 -16 95 -51 121 -110 16 -36 18 -82 21 -487 l3 -448 90
0 90 0 -3 473 c-4 534 -2 525 -85 617 -49 54 -110 84 -204 99 -72 12 -100 12
-181 0z"/>
<path d="M4320 5320 c-220 -35 -354 -163 -404 -387 -21 -94 -21 -315 -1 -415
8 -40 33 -110 55 -154 82 -168 230 -254 435 -254 165 1 293 49 384 145 59 62
95 131 123 233 30 110 30 363 0 474 -51 189 -153 300 -315 342 -74 19 -207 27
-277 16z m255 -161 c123 -62 187 -247 171 -495 -14 -219 -76 -344 -195 -397
-60 -27 -198 -29 -254 -3 -138 62 -207 212 -208 456 -1 277 62 409 221 461 14
5 68 7 120 6 78 -3 104 -7 145 -28z"/>
<path d="M6895 5320 c-166 -23 -289 -108 -358 -246 -50 -99 -61 -165 -62 -349
0 -148 3 -180 23 -250 70 -243 233 -364 488 -365 262 0 438 135 501 386 24 97
24 361 0 458 -47 187 -152 303 -317 350 -70 19 -198 27 -275 16z m214 -146
c71 -21 140 -89 169 -167 60 -159 55 -447 -11 -589 -34 -75 -69 -113 -134
-144 -47 -23 -69 -28 -137 -28 -224 0 -336 163 -336 489 0 313 101 454 326
455 39 0 94 -7 123 -16z"/>
<path d="M8262 5319 c-118 -20 -217 -93 -262 -192 l-20 -42 0 70 c0 39 -3 87
-6 108 l-7 37 -78 0 -79 0 0 -585 0 -585 89 0 90 0 3 398 c3 388 4 398 27 455
33 84 78 137 142 170 109 56 260 46 327 -21 65 -65 65 -69 69 -559 l4 -443 90
0 90 0 -3 463 c-4 450 -5 464 -26 523 -44 119 -130 184 -267 204 -81 11 -110
11 -183 -1z"/>
<path d="M11190 5320 c-204 -32 -337 -156 -389 -363 -70 -273 -7 -599 139
-731 166 -150 522 -157 685 -15 39 35 115 142 115 164 0 7 -28 20 -62 30 -34
9 -68 19 -74 22 -7 3 -22 -14 -35 -39 -43 -86 -94 -120 -203 -138 -116 -18
-225 9 -289 74 -64 64 -100 159 -110 294 l-5 62 404 0 404 0 0 99 c0 288 -98
459 -298 521 -70 22 -208 32 -282 20z m224 -151 c100 -37 152 -124 163 -271
l6 -78 -308 0 -308 0 6 63 c11 140 91 259 193 291 73 22 182 20 248 -5z"/>
<path d="M12420 5319 c-214 -32 -348 -170 -396 -408 -21 -105 -15 -344 11
-436 68 -242 226 -364 475 -365 140 0 254 45 336 132 45 48 97 145 109 204 l6
31 -62 7 c-108 11 -118 9 -125 -21 -12 -51 -53 -120 -86 -148 -51 -43 -96 -58
-178 -59 -143 -2 -236 70 -282 217 -20 64 -23 93 -23 257 0 148 4 196 17 241
27 86 74 149 137 181 46 24 64 28 140 28 91 0 153 -20 197 -61 19 -17 53 -84
68 -131 6 -20 53 -23 140 -12 46 7 47 7 40 38 -33 157 -175 281 -349 306 -79
11 -98 11 -175 -1z"/>
<path d="M15007 5319 c-117 -17 -206 -79 -257 -178 l-29 -56 -1 108 0 107 -85
0 -85 0 0 -585 0 -585 90 0 90 0 0 339 c0 187 5 375 11 418 18 137 79 231 178
277 36 17 65 21 136 21 103 -1 151 -18 190 -69 50 -66 55 -115 55 -568 l0
-418 91 0 90 0 -3 468 c-3 465 -3 467 -27 526 -45 113 -126 173 -262 195 -72
12 -99 12 -182 0z"/>
<path d="M16195 5319 c-212 -32 -344 -156 -401 -374 -27 -104 -25 -351 4 -458
71 -263 249 -389 526 -374 252 14 405 141 467 387 22 85 19 386 -5 469 -51
185 -162 300 -326 339 -68 16 -198 22 -265 11z m251 -156 c122 -64 174 -191
174 -428 0 -202 -29 -317 -100 -398 -56 -63 -124 -91 -225 -91 -162 0 -259 85
-311 275 -25 89 -25 328 -1 418 50 186 140 254 327 248 73 -2 105 -8 136 -24z"/>
<path d="M18015 5320 c-121 -17 -236 -76 -300 -154 -49 -60 -91 -158 -111
-255 -24 -122 -15 -335 18 -448 70 -234 232 -353 483 -353 264 0 439 135 502
388 24 95 24 360 0 456 -47 187 -152 303 -317 350 -70 19 -198 27 -275 16z
m214 -146 c71 -21 140 -89 169 -167 60 -159 55 -447 -11 -589 -34 -75 -69
-113 -134 -144 -47 -23 -69 -28 -137 -28 -224 0 -336 163 -336 489 0 313 101
454 326 455 39 0 94 -7 123 -16z"/>
<path d="M19200 5319 c-168 -29 -282 -157 -326 -364 -23 -107 -23 -368 0 -479
30 -149 97 -256 193 -308 99 -54 260 -62 375 -18 68 25 159 103 191 164 l22
41 3 -170 c3 -194 -6 -251 -51 -326 -25 -43 -44 -59 -90 -83 -150 -77 -369
-26 -418 97 -7 17 -13 33 -15 35 -1 2 -40 -2 -88 -9 -97 -14 -98 -16 -67 -86
61 -134 219 -213 426 -213 272 0 430 119 474 355 8 39 12 283 14 703 l2 642
-87 0 -88 0 0 -102 0 -103 -26 45 c-48 84 -108 133 -199 163 -64 21 -175 29
-245 16z m227 -144 c136 -40 217 -186 229 -413 17 -301 -111 -502 -321 -502
-98 0 -143 15 -191 64 -75 76 -112 238 -101 451 7 131 21 201 54 272 55 118
189 170 330 128z"/>
<path d="M23680 5320 c-216 -34 -356 -181 -400 -419 -15 -83 -12 -301 6 -389
53 -264 222 -402 494 -402 157 0 262 34 347 113 42 39 103 129 103 153 0 9
-45 26 -131 50 -11 3 -21 -8 -34 -35 -23 -52 -69 -95 -130 -122 -71 -31 -209
-31 -282 1 -118 51 -193 189 -193 355 l0 55 400 0 400 0 0 111 c0 343 -141
513 -440 532 -47 3 -110 2 -140 -3z m245 -157 c85 -45 132 -126 144 -251 5
-43 6 -80 4 -84 -2 -5 -141 -8 -309 -8 l-304 0 0 30 c0 142 89 290 197 324 70
23 215 16 268 -11z"/>
<path d="M27386 5320 c-137 -22 -269 -117 -330 -239 -52 -102 -69 -190 -69
-361 0 -171 17 -257 70 -366 91 -187 313 -282 545 -233 164 35 300 168 324
316 l6 40 -62 6 c-107 12 -120 10 -120 -15 0 -13 -13 -48 -28 -78 -61 -121
-219 -170 -365 -113 -55 22 -121 101 -147 176 -50 146 -49 417 1 553 26 72 95
144 155 162 51 15 166 16 219 1 58 -16 131 -92 147 -153 l13 -49 89 6 c48 3
90 8 93 10 9 10 -39 125 -73 174 -86 125 -278 192 -468 163z"/>
<path d="M28549 5320 c-114 -18 -219 -75 -283 -153 -85 -104 -126 -249 -126
-447 0 -406 173 -610 517 -610 155 0 271 40 352 121 39 39 91 124 91 148 0 5
-26 17 -57 26 -32 9 -65 18 -74 21 -11 3 -21 -6 -30 -28 -7 -18 -31 -52 -52
-75 -50 -55 -114 -76 -227 -76 -98 0 -162 22 -218 76 -64 61 -112 191 -112
305 l0 52 399 0 399 0 6 48 c9 63 -9 224 -33 300 -46 148 -139 239 -286 278
-67 18 -198 25 -266 14z m247 -158 c48 -24 98 -79 118 -127 13 -30 36 -160 36
-201 0 -12 -48 -14 -311 -14 l-312 0 7 62 c18 152 86 250 205 295 56 21 205
12 257 -15z"/>
<path d="M29710 5319 c-147 -21 -259 -101 -295 -208 -26 -78 -18 -193 18 -253
58 -99 149 -150 370 -209 237 -63 287 -100 287 -213 0 -127 -84 -189 -260
-190 -47 -1 -105 5 -130 12 -70 20 -134 73 -161 131 -13 28 -28 49 -34 47 -5
-2 -43 -9 -83 -16 -83 -15 -83 -16 -40 -106 63 -134 210 -204 433 -204 225 0
360 64 424 200 21 45 26 70 26 140 0 73 -4 93 -28 142 -50 101 -135 152 -355
213 -73 20 -152 44 -175 54 -160 69 -184 225 -47 300 34 19 64 26 126 29 142
8 236 -35 276 -126 l20 -44 51 7 c106 13 109 14 102 43 -22 93 -106 186 -199
221 -55 20 -184 42 -239 40 -18 -1 -57 -5 -87 -10z"/>
<path d="M24935 5304 c-65 -23 -111 -68 -150 -147 l-35 -72 0 108 0 107 -91 0
-92 0 7 -77 c3 -42 6 -305 6 -585 l0 -508 89 0 90 0 3 398 c3 377 4 400 24
448 49 119 124 172 255 181 l79 6 0 78 0 79 -72 -1 c-40 0 -91 -7 -113 -15z"/>
<path d="M5980 4715 l0 -585 90 0 90 0 0 585 0 585 -90 0 -90 0 0 -585z"/>
<path d="M20063 5283 c2 -10 104 -269 226 -576 121 -308 221 -567 221 -576 0
-31 -97 -271 -125 -307 -41 -53 -94 -74 -192 -74 l-83 0 0 -70 c0 -67 1 -70
26 -76 14 -4 66 -4 115 -2 74 5 101 11 154 37 68 33 122 87 157 155 11 22 144
366 295 765 151 399 277 729 280 734 2 4 -39 6 -93 5 l-98 -3 -108 -310 c-172
-493 -220 -625 -227 -625 -4 0 -18 30 -31 68 -13 37 -92 247 -176 467 l-152
400 -97 3 c-90 3 -97 1 -92 -15z"/>
<path d="M25252 5213 c17 -49 113 -311 213 -583 l182 -495 105 -3 c79 -2 107
1 111 10 2 7 95 263 206 569 110 306 203 564 207 573 5 14 -5 16 -89 16 l-94
0 -146 -432 c-81 -238 -156 -467 -168 -509 l-22 -76 -97 286 c-54 157 -133
386 -175 509 l-78 222 -94 0 -93 0 32 -87z"/>
<path d="M26500 4715 l0 -585 90 0 90 0 0 585 0 585 -90 0 -90 0 0 -585z"/>
</g>
</svg>
