<svg data-v-423bf9ae="" xmlns="http://www.w3.org/2000/svg" viewBox="0 0 912.4894111637972 163" class="iconAbove"><!----><!----><!----><g data-v-423bf9ae="" id="44ab07ba-4f47-4175-b4a3-02cc82c62e34" fill="black" transform="matrix(4.21940920346668,0,0,4.21940920346668,-5.021092330056376,104.64556855205514)"><path d="M1.19 10.50L2.39 10.50L2.39 0.90L1.19 0.90ZM9.46 10.50L10.60 10.50L10.60 5.57C10.60 3.74 9.80 3.00 8.20 3.00C6.86 3.00 6.16 3.58 5.82 4.58C5.82 4.03 5.80 3.50 5.80 3.14L4.75 3.14C4.75 3.14 4.77 4.23 4.77 4.72L4.77 10.50L5.91 10.50L5.91 6.24C5.91 4.72 6.69 3.86 7.88 3.86C9.02 3.86 9.46 4.33 9.46 5.78ZM12.91 10.50L13.92 10.50L13.92 3.99C13.92 3.04 13.89 2.16 13.89 2.14C13.92 2.23 14.21 3.05 14.53 3.86L17.15 10.50L18.13 10.50L20.44 3.86C20.72 3.04 21.03 2.02 21.04 1.97C21.04 1.99 21 3.04 21 3.99L21 10.50L22.08 10.50L22.08 0.90L20.47 0.90L18.51 6.45C17.79 8.48 17.61 9.21 17.61 9.21C17.61 9.21 17.40 8.48 16.60 6.50L14.36 0.90L12.91 0.90ZM29.32 6.73C29.32 9.02 28.50 9.80 27.23 9.80C26.11 9.80 25.16 9.00 25.16 6.73C25.16 4.54 25.97 3.84 27.24 3.84C28.56 3.84 29.32 4.59 29.32 6.73ZM30.51 6.79C30.51 4.24 29.43 3.00 27.26 3.00C25.19 3.00 23.97 4.21 23.97 6.76C23.97 9.46 25.28 10.64 27.17 10.64C29.26 10.64 30.51 9.42 30.51 6.79ZM31.63 3.99L32.51 3.99L32.51 9.20C32.51 10.01 32.97 10.63 33.78 10.63L35.15 10.63L35.15 9.67L34.34 9.67C33.80 9.67 33.64 9.42 33.64 8.96L33.64 3.99L35.03 3.99L35.03 3.14L33.64 3.14L33.64 0.99L32.51 0.99L32.51 3.14L31.63 3.14ZM37.07 10.50L38.19 10.50L38.19 3.14L37.07 3.14ZM37.02 1.61L38.25 1.61L38.25 0.35L37.02 0.35ZM45.46 6.73C45.46 9.02 44.65 9.80 43.37 9.80C42.25 9.80 41.30 9.00 41.30 6.73C41.30 4.54 42.11 3.84 43.39 3.84C44.70 3.84 45.46 4.59 45.46 6.73ZM46.65 6.79C46.65 4.24 45.57 3.00 43.40 3.00C41.33 3.00 40.11 4.21 40.11 6.76C40.11 9.46 41.43 10.64 43.32 10.64C45.40 10.64 46.65 9.42 46.65 6.79ZM53.23 10.50L54.36 10.50L54.36 5.57C54.36 3.74 53.56 3.00 51.97 3.00C50.62 3.00 49.92 3.58 49.59 4.58C49.59 4.03 49.56 3.50 49.56 3.14L48.51 3.14C48.51 3.14 48.54 4.23 48.54 4.72L48.54 10.50L49.67 10.50L49.67 6.24C49.67 4.72 50.46 3.86 51.65 3.86C52.78 3.86 53.23 4.33 53.23 5.78ZM63.52 1.88L66.63 1.88L66.63 0.90L59.19 0.90L59.19 1.88L62.31 1.88L62.31 10.50L63.52 10.50ZM70.35 10.64C72.27 10.64 72.87 9.73 73.21 8.90L72.24 8.62C71.97 9.34 71.55 9.79 70.38 9.79C68.87 9.79 68.32 8.64 68.32 7.06L68.32 7.04L73.36 7.04C73.37 6.89 73.39 6.66 73.39 6.52C73.39 4.59 72.77 3.00 70.32 3.00C68.49 3.00 67.12 4.09 67.12 6.76C67.12 9.30 68.18 10.64 70.35 10.64ZM70.32 3.84C71.58 3.84 72.20 4.54 72.20 6.08L72.20 6.17L68.32 6.17C68.40 4.34 69.34 3.84 70.32 3.84ZM78.02 10.64C79.77 10.64 80.67 9.51 80.84 8.32L79.70 8.23C79.55 9.23 78.92 9.73 77.99 9.73C76.52 9.73 76.05 8.51 76.05 6.76C76.05 4.82 76.57 3.89 77.98 3.89C78.96 3.89 79.49 4.41 79.63 5.25L80.79 5.18C80.56 3.93 79.66 3.00 78.01 3.00C76.41 3.00 74.86 3.88 74.86 6.79C74.86 8.97 75.71 10.64 78.02 10.64ZM83.83 3.16L83.83-0.39L82.70-0.39L82.70 10.50L83.83 10.50L83.83 6.24C83.83 4.69 84.63 3.86 85.82 3.86C87.07 3.86 87.39 4.49 87.39 5.80L87.39 10.50L88.52 10.50L88.52 5.57C88.52 4.16 88.07 3.00 86.13 3.00C84.90 3.00 84.17 3.50 83.79 4.45C83.82 4.07 83.83 3.61 83.83 3.16ZM95.52 10.50L96.66 10.50L96.66 5.57C96.66 3.74 95.86 3.00 94.26 3.00C92.92 3.00 92.22 3.58 91.88 4.58C91.88 4.03 91.85 3.50 91.85 3.14L90.80 3.14C90.80 3.14 90.83 4.23 90.83 4.72L90.83 10.50L91.97 10.50L91.97 6.24C91.97 4.72 92.75 3.86 93.94 3.86C95.07 3.86 95.52 4.33 95.52 5.78ZM103.82 6.73C103.82 9.02 103.01 9.80 101.74 9.80C100.62 9.80 99.67 9.00 99.67 6.73C99.67 4.54 100.48 3.84 101.75 3.84C103.07 3.84 103.82 4.59 103.82 6.73ZM105.01 6.79C105.01 4.24 103.94 3.00 101.77 3.00C99.69 3.00 98.48 4.21 98.48 6.76C98.48 9.46 99.79 10.64 101.68 10.64C103.77 10.64 105.01 9.42 105.01 6.79ZM106.88 10.50L108.01 10.50L108.01-0.39L106.88-0.39ZM115.22 6.73C115.22 9.02 114.41 9.80 113.13 9.80C112.01 9.80 111.06 9.00 111.06 6.73C111.06 4.54 111.87 3.84 113.15 3.84C114.46 3.84 115.22 4.59 115.22 6.73ZM116.41 6.79C116.41 4.24 115.33 3.00 113.16 3.00C111.09 3.00 109.87 4.21 109.87 6.76C109.87 9.46 111.19 10.64 113.08 10.64C115.16 10.64 116.41 9.42 116.41 6.79ZM120.46 10.57C121.72 10.57 122.49 9.93 122.86 9.04L122.86 9.20L122.88 10.78C122.88 12.35 122.15 12.96 120.97 12.96C120.02 12.96 119.43 12.57 119.27 11.87L118.13 12.04C118.38 13.10 119.25 13.83 120.95 13.83C123.00 13.83 124.01 12.81 124.01 10.75L124.00 4.63L124.04 3.14L122.96 3.14L122.91 4.47C122.63 3.64 121.87 3.00 120.58 3.00C118.58 3.00 117.81 4.44 117.81 6.82C117.81 9.30 118.58 10.57 120.46 10.57ZM122.86 6.80C122.86 8.89 121.87 9.72 120.83 9.72C119.56 9.72 118.99 8.97 118.99 6.80C118.99 4.72 119.56 3.86 120.86 3.86C121.94 3.86 122.86 4.73 122.86 6.80ZM126.43 13.83C128.06 13.83 128.51 12.77 128.83 11.91L132.15 3.14L130.96 3.14L129.51 7.29C129.14 8.37 128.83 9.17 128.83 9.17C128.83 9.17 128.56 8.37 128.14 7.28L126.56 3.14L125.34 3.14L128.24 10.49L127.71 11.90C127.48 12.49 127.16 12.89 126.43 12.89L125.72 12.89L125.72 13.79C125.80 13.80 126.03 13.83 126.43 13.83ZM143.86 7.85C143.86 5.80 142.24 5.46 140.46 5.01C139.02 4.65 138.03 4.44 138.03 3.25C138.03 2.35 138.66 1.68 140.11 1.68C141.74 1.68 142.18 2.20 142.45 3.16L143.64 2.95C143.22 1.53 142.32 0.76 140.20 0.76C138.39 0.76 136.82 1.50 136.82 3.29C136.82 5.18 138.33 5.66 139.93 6.02C141.69 6.43 142.69 6.64 142.69 7.92C142.69 9.14 141.82 9.70 140.21 9.70C138.35 9.70 137.80 8.99 137.54 7.97L136.36 8.19C136.74 9.76 137.96 10.64 140.18 10.64C142.72 10.64 143.86 9.46 143.86 7.85ZM148.72 10.64C150.64 10.64 151.24 9.73 151.58 8.90L150.61 8.62C150.35 9.34 149.93 9.79 148.75 9.79C147.24 9.79 146.69 8.64 146.69 7.06L146.69 7.04L151.73 7.04C151.75 6.89 151.76 6.66 151.76 6.52C151.76 4.59 151.14 3.00 148.69 3.00C146.86 3.00 145.49 4.09 145.49 6.76C145.49 9.30 146.55 10.64 148.72 10.64ZM148.69 3.84C149.95 3.84 150.57 4.54 150.57 6.08L150.57 6.17L146.69 6.17C146.78 4.34 147.71 3.84 148.69 3.84ZM157.11 4.07L157.11 3.02C156.90 3.01 156.79 3.01 156.72 3.01C155.68 3.01 155.04 3.61 154.83 4.59L154.77 3.14L153.69 3.14L153.73 4.84L153.73 10.50L154.87 10.50L154.87 6.13C154.87 5.14 155.37 4.06 156.62 4.06C156.76 4.06 156.90 4.06 157.11 4.07ZM161.76 10.50L164.42 3.14L163.24 3.14L161.57 8.05C161.32 8.81 161.11 9.60 161.11 9.60C161.11 9.60 160.89 8.81 160.64 8.08L158.91 3.14L157.74 3.14L160.44 10.50ZM165.77 10.50L166.89 10.50L166.89 3.14L165.77 3.14ZM165.72 1.61L166.95 1.61L166.95 0.35L165.72 0.35ZM171.98 10.64C173.73 10.64 174.62 9.51 174.79 8.32L173.66 8.23C173.50 9.23 172.87 9.73 171.95 9.73C170.48 9.73 170.00 8.51 170.00 6.76C170.00 4.82 170.52 3.89 171.93 3.89C172.91 3.89 173.45 4.41 173.59 5.25L174.75 5.18C174.51 3.93 173.61 3.00 171.96 3.00C170.37 3.00 168.81 3.88 168.81 6.79C168.81 8.97 169.67 10.64 171.98 10.64ZM179.28 10.64C181.20 10.64 181.80 9.73 182.14 8.90L181.17 8.62C180.91 9.34 180.49 9.79 179.31 9.79C177.80 9.79 177.25 8.64 177.25 7.06L177.25 7.04L182.29 7.04C182.31 6.89 182.32 6.66 182.32 6.52C182.32 4.59 181.71 3.00 179.26 3.00C177.42 3.00 176.05 4.09 176.05 6.76C176.05 9.30 177.11 10.64 179.28 10.64ZM179.26 3.84C180.52 3.84 181.13 4.54 181.13 6.08L181.13 6.17L177.25 6.17C177.34 4.34 178.28 3.84 179.26 3.84ZM189.42 8.48C189.42 6.92 188.13 6.57 186.94 6.26C185.46 5.88 185.05 5.56 185.05 4.84C185.05 4.24 185.65 3.85 186.52 3.85C187.46 3.85 188.06 4.17 188.23 4.93L189.27 4.80C189.01 3.56 188.03 3.00 186.52 3.00C185.01 3.00 183.96 3.72 183.96 5.01C183.96 6.19 184.72 6.82 186.33 7.21C187.61 7.52 188.33 7.71 188.33 8.57C188.33 9.48 187.61 9.80 186.58 9.80C185.49 9.80 184.90 9.25 184.70 8.57L183.65 8.78C183.97 10.14 185.04 10.64 186.59 10.64C188.47 10.64 189.42 9.87 189.42 8.48ZM194.74 10.50L200.62 10.50L200.62 9.52L195.93 9.52L195.93 0.90L194.74 0.90ZM202.16 10.50L208.04 10.50L208.04 9.52L203.35 9.52L203.35 0.90L202.16 0.90ZM213.32 10.64C215.43 10.64 216.75 9.58 217.45 8.11L216.47 7.62C215.85 8.85 214.89 9.65 213.37 9.65C211.19 9.65 209.89 8.02 209.89 5.66C209.89 3.28 211.09 1.74 213.32 1.74C214.93 1.74 215.82 2.55 216.22 3.50L217.36 3.12C216.69 1.54 215.32 0.76 213.30 0.76C210.35 0.76 208.67 2.63 208.67 5.66C208.67 8.57 210.24 10.64 213.32 10.64Z"></path></g><!----><g data-v-423bf9ae="" id="b7e45604-9fa7-4cbc-a342-5a1e3e5c2a5f" transform="matrix(2.8125,0,0,2.8125,407.6023347079754,-5.625000432133675)" stroke="none" fill="black"><switch><g><path d="M31.2 24.9V11.1v-.3c.1-.2 0-.5-.1-.8-.1-.2-.4-.4-.6-.5-.1-.1-.2-.1-.3-.2l-12-6.9c-.1 0-.2-.1-.3-.1-.1-.2-.4-.3-.6-.3s-.5.1-.7.3c-.1 0-.2.1-.3.1l-12 6.9c-.1.1-.2.2-.3.2-.2.1-.5.3-.6.5-.1.2-.2.5-.1.8V25.2c-.1.2 0 .5.1.8.1.2.4.4.6.5.1.1.2.1.3.2l12 6.9c.1.1.2.1.3.1.2.2.4.3.7.3s.5-.1.7-.3c.1 0 .2-.1.3-.1l12-6.9c.1-.1.2-.1.3-.2.2-.1.5-.2.6-.5.1-.2.2-.5.1-.8-.1-.1-.1-.2-.1-.3zM18.3 4.7l10 5.8-4.5 2.6-5.5-3.2V4.7zm-2 0v5.2l-5.5 3.2-4.5-2.6 10-5.8zm-11 7.5l4.5 2.6v6.3l-4.5 2.6V12.2zm11 19.1l-10-5.8 4.5-2.6 5.5 3.2v5.2zm0-7.5l-4.5-2.6V16l4.5 2.6v5.2zm1-7l-4.5-2.6 4.5-2.6 4.5 2.6-4.5 2.6zm5.4-.8v5.2l-4.5 2.6v-5.2l4.5-2.6zm-4.4 15.3v-5.2l5.5-3.2 4.5 2.6-10 5.8zm10.9-7.5l-4.5-2.6v-6.3l4.5-2.6v11.5z"></path></g></switch></g><!----></svg>