<?xml version="1.0" encoding="UTF-8"?>
<svg id="Layer_2" data-name="Layer 2" xmlns="http://www.w3.org/2000/svg" viewBox="0 0 24.01 19.52">
  <defs>
    <style>
      .cls-1 {
        fill: #177775;
      }
    </style>
  </defs>
  <g id="Layer_2-2" data-name="Layer 2">
    <g id="Layer_1-2" data-name="Layer 1-2">
      <path class="cls-1" d="m23.95,2.32c-.9.4-1.85.66-2.83.78,1.03-.62,1.79-1.58,2.16-2.72-.95.56-2,.96-3.13,1.18-1.86-1.98-4.97-2.09-6.95-.23-1.29,1.2-1.83,3-1.43,4.72C7.69,5.85,4.07,3.88,1.64.92c-.44.75-.67,1.61-.67,2.48,0,1.71.87,3.21,2.19,4.1-.78-.02-1.55-.24-2.23-.62v.06c0,2.34,1.65,4.36,3.95,4.83-.72.19-1.48.22-2.21.09.65,2,2.5,3.38,4.6,3.42-1.74,1.37-3.89,2.11-6.1,2.1-.39,0-.78-.02-1.17-.07,2.26,1.44,4.88,2.21,7.56,2.21,9.05,0,14-7.5,14-13.98,0-.21,0-.42-.01-.63.97-.7,1.8-1.56,2.46-2.55l-.05-.02v-.02Z"/>
    </g>
  </g>
</svg>