<?xml version="1.0" encoding="UTF-8"?>
<svg id="Layer_2" data-name="Layer 2" xmlns="http://www.w3.org/2000/svg" viewBox="0 0 24 16.91">
  <defs>
    <style>
      .cls-1 {
        fill: #177775;
      }
    </style>
  </defs>
  <g id="Layer_2-2" data-name="Layer 2">
    <g id="Layer_1-2" data-name="Layer 1-2">
      <path class="cls-1" d="m23.5,2.65c-.28-1.04-1.08-1.85-2.12-2.14-1.87-.51-9.38-.51-9.38-.51,0,0-7.51,0-9.38.51C1.59.8.78,1.61.5,2.65c-.5,1.88-.5,5.81-.5,5.81,0,0,0,3.93.5,5.81.28,1.04,1.08,1.85,2.12,2.14,1.87.5,9.38.5,9.38.5,0,0,7.51,0,9.38-.5,1.04-.28,1.85-1.1,2.12-2.14.5-1.88.5-5.81.5-5.81,0,0,0-3.93-.5-5.81Zm-13.95,9.38v-7.14l6.27,3.57s-6.27,3.57-6.27,3.57Z"/>
    </g>
  </g>
</svg>