<?xml version="1.0" encoding="UTF-8"?>
<svg id="Layer_2" data-name="Layer 2" xmlns="http://www.w3.org/2000/svg" xmlns:xlink="http://www.w3.org/1999/xlink" viewBox="0 0 1080 1230.64">
  <defs>
    <style>
      .cls-1 {
        fill: url(#linear-gradient);
      }
    </style>
    <linearGradient id="linear-gradient" x1="271.41" y1="908.18" x2="307.4" y2="908.18" gradientTransform="translate(-19008.66 24491.65) rotate(27.98) scale(30.8 -33.32) skewX(-6.19)" gradientUnits="userSpaceOnUse">
      <stop offset="0" stop-color="#177775"/>
      <stop offset="1" stop-color="#28d2bf"/>
    </linearGradient>
  </defs>
  <g id="Layer_1-2" data-name="Layer 1">
    <g id="_3804fe9e-9a49-4b43-9e09-02cdd3bed574" data-name="3804fe9e-9a49-4b43-9e09-02cdd3bed574">
      <path class="cls-1" d="m1074.56,880.68V338.43c3.85-7.69,0-19.23-3.85-30.77-3.85-7.69-15.38-15.38-23.07-19.23-3.85-3.85-7.69-3.85-11.54-7.69L574.61,15.38c-3.85,0-7.69-3.85-11.54-3.85-3.85-7.69-15.38-11.54-23.07-11.54s-19.23,3.85-26.92,11.54c-3.85,0-7.69,3.85-11.54,3.85L40.05,280.74c-3.85,3.85-7.69,7.69-11.54,7.69-7.69,3.85-19.23,11.54-23.07,19.23-3.85,7.69-7.69,19.23-3.85,30.77v553.79c-3.85,7.69,0,19.23,3.85,30.77,3.85,7.69,15.38,15.38,23.07,19.23,3.85,3.85,7.69,3.85,11.54,7.69l461.49,265.36c3.85,3.85,7.69,3.85,11.54,3.85,7.69,7.69,15.38,11.54,26.92,11.54s19.23-3.85,26.92-11.54c3.85,0,7.69-3.85,11.54-3.85l461.49-265.36c3.85-3.85,7.69-3.85,11.54-7.69,7.69-3.85,19.23-7.69,23.07-19.23,3.85-7.69,7.69-19.23,3.85-30.77-3.85-3.85-3.85-7.69-3.85-11.54ZM578.46,103.84l384.58,223.05-173.06,99.99-211.52-123.06V103.84Zm-76.92,0v199.98l-211.52,123.06-173.06-99.99L501.54,103.84ZM78.51,392.27l173.06,99.99v242.28l-173.06,99.99v-442.26Zm423.03,734.54l-384.58-223.05,173.06-99.99,211.52,123.06v199.98Zm0-288.43l-173.06-99.99v-199.98l173.06,99.99v199.98Zm38.46-269.2l-173.06-99.99,173.06-99.99,173.06,99.99-173.06,99.99Zm207.67-30.77v199.98l-173.06,99.99v-199.98s173.06-99.99,173.06-99.99Zm-169.21,588.4v-199.98l211.52-123.06,173.06,99.99-384.58,223.05Zm419.19-288.43l-173.06-99.99v-242.28l173.06-99.99v442.26Z"/>
    </g>
  </g>
</svg>