<?xml version="1.0" encoding="UTF-8"?>
<svg width="100pt" height="100pt" version="1.1" viewBox="0 0 100 100" xmlns="http://www.w3.org/2000/svg">
 <path d="m94.078 21.148-42.707-20.832c-0.87109-0.42578-1.8711-0.42578-2.7422 0l-42.707 20.832c-1.0742 0.52344-1.7539 1.6133-1.7539 2.8086v52.082c0 1.1953 0.67969 2.2891 1.7539 2.8086l42.707 20.832c0.43359 0.21484 0.90625 0.32031 1.3711 0.32031s0.9375-0.10547 1.3711-0.31641l42.707-20.832c1.0742-0.52344 1.7539-1.6133 1.7539-2.8086v-52.086c0-1.1953-0.67969-2.2852-1.7539-2.8086zm-83.66 7.8086 10.414 5.0859v31.738l-10.418 5.207zm39.582-5.6992 18.66 8.9531-18.66 9.1016-18.66-9.1016zm3.125 23.488 19.793-9.6523v28.652l-19.793 9.5zm-6.25 0v28.5l-19.793-9.5v-28.66zm-22.887 24.441 22.887 10.988v9.6992l-32.523-15.867zm29.137 10.984 22.887-10.988 9.6367 4.8203-32.523 15.867zm26.043-16.395v-31.734l10.418-5.082v42.023zm-3.3516-37.055-22.691-10.895v-9.6992l32.453 15.828zm-28.941-20.594v9.6992l-22.691 10.895-9.7617-4.7656z" fill="#28d1bf"/>
</svg>
